<svg xmlns="http://www.w3.org/2000/svg" xmlns:xlink="http://www.w3.org/1999/xlink" viewBox="0 0 177.41 102.18"><defs><linearGradient id="a" x1="179.04" y1="23.76" x2="5.34" y2="95.92" gradientUnits="userSpaceOnUse"><stop offset="0" stop-color="#00c5db"/><stop offset="1" stop-color="#1b5582"/></linearGradient><linearGradient id="b" x1="195.09" y1="62.39" x2="21.39" y2="134.56" xlink:href="#a"/><linearGradient id="c" x1="162.92" y1="-15.04" x2="-10.78" y2="57.12" xlink:href="#a"/><linearGradient id="d" x1="168.51" y1="-1.6" x2="-5.19" y2="70.57" xlink:href="#a"/><linearGradient id="e" x1="186.78" y1="42.38" x2="13.08" y2="114.54" xlink:href="#a"/><linearGradient id="f" x1="138.68" y1="-1.61" x2="17.2" y2="48.86" xlink:href="#a"/></defs><path d="M24.45,102.18a10.51,10.51,0,0,1-3.69-.63,8.45,8.45,0,0,1-2.94-1.79A8.13,8.13,0,0,1,15.88,97a9.4,9.4,0,0,1,0-7,8.27,8.27,0,0,1,1.94-2.76,8.76,8.76,0,0,1,2.94-1.79,10.51,10.51,0,0,1,3.69-.63,10.39,10.39,0,0,1,4.33.86,8,8,0,0,1,3.12,2.46l-3.53,3.16a5.91,5.91,0,0,0-1.63-1.44,3.94,3.94,0,0,0-2-.51,4.21,4.21,0,0,0-1.59.29,3.39,3.39,0,0,0-1.23.83,3.78,3.78,0,0,0-.79,1.32,4.88,4.88,0,0,0-.29,1.72,5,5,0,0,0,.29,1.72,4,4,0,0,0,.79,1.32,3.39,3.39,0,0,0,1.23.83,4.21,4.21,0,0,0,1.59.28,3.94,3.94,0,0,0,2-.51,5.76,5.76,0,0,0,1.63-1.44l3.53,3.16a8.22,8.22,0,0,1-3.12,2.46A10.39,10.39,0,0,1,24.45,102.18Z" style="fill:#02234c"/><path d="M37,101.8,31.71,85.19h5.77l4.3,14h-2.9l4.56-14h5.15l4.24,14H50.06l4.48-14h5.32L54.54,101.8h-6L45.07,90.32h1.62L43,101.8Z" style="fill:#02234c"/><path d="M72.7,97.58H81v4.22H67.19V85.19h13.5v4.23h-8Zm-.38-6.22h7.4v4h-7.4Z" style="fill:#02234c"/><path d="M80.81,101.8l7.41-10.34,0,3.91L81,85.19h6.29l4.17,6.17-2.68,0,4.08-6.2h6l-7.17,10V91.27l7.53,10.53H92.87l-4.18-6.45,2.59,0L87.2,101.8Z" style="fill:#02234c"/><path d="M99.28,101.8V85.19h8a9.73,9.73,0,0,1,4,.76,5.74,5.74,0,0,1,3.55,5.51,5.85,5.85,0,0,1-.93,3.32A6.06,6.06,0,0,1,111.3,97a9.57,9.57,0,0,1-4,.77h-4.88l2.49-2.4v6.48Zm5.6-5.86-2.49-2.54h4.53a2.44,2.44,0,0,0,1.72-.52,1.86,1.86,0,0,0,.56-1.42,1.88,1.88,0,0,0-.56-1.43,2.49,2.49,0,0,0-1.72-.52h-4.53L104.88,87Z" style="fill:#02234c"/><path d="M116,101.8V85.19h8a9.71,9.71,0,0,1,4,.76,5.7,5.7,0,0,1,3.55,5.51A5.57,5.57,0,0,1,128,96.89a10.05,10.05,0,0,1-4,.74h-4.89l2.5-2.31v6.48Zm5.61-5.86-2.5-2.54h4.54a2.44,2.44,0,0,0,1.72-.52,1.85,1.85,0,0,0,.55-1.42,1.88,1.88,0,0,0-.55-1.43,2.49,2.49,0,0,0-1.72-.52h-4.54l2.5-2.54Zm4.34,5.86-4.08-6h5.93l4.13,6Z" style="fill:#02234c"/><path d="M138.48,97.58h8.31v4.22H133V85.19h13.5v4.23h-8Zm-.38-6.22h7.41v4H138.1Z" style="fill:#02234c"/><path d="M154.45,102.18a16.78,16.78,0,0,1-4-.47,11.31,11.31,0,0,1-3.2-1.24l1.8-4.08a11.53,11.53,0,0,0,2.65,1.11,10.52,10.52,0,0,0,2.83.41,5.37,5.37,0,0,0,1.27-.11,1.54,1.54,0,0,0,.68-.3.67.67,0,0,0,.21-.49.79.79,0,0,0-.5-.71,5.12,5.12,0,0,0-1.31-.44l-1.8-.38a17.64,17.64,0,0,1-2-.53,8.21,8.21,0,0,1-1.81-.88A4.35,4.35,0,0,1,148,92.63a4.5,4.5,0,0,1-.49-2.22,4.85,4.85,0,0,1,.86-2.81,5.93,5.93,0,0,1,2.59-2,10.72,10.72,0,0,1,4.28-.76,15.51,15.51,0,0,1,3.33.36,10.29,10.29,0,0,1,2.94,1.09l-1.69,4.06a13,13,0,0,0-2.38-.93,8.94,8.94,0,0,0-2.24-.31,4.47,4.47,0,0,0-1.29.15,1.33,1.33,0,0,0-.67.38.73.73,0,0,0,.29,1.19,5.4,5.4,0,0,0,1.32.42l1.81.36a14.07,14.07,0,0,1,2,.52,7.27,7.27,0,0,1,1.79.88,4,4,0,0,1,1.32,1.42,4.39,4.39,0,0,1,.5,2.18,4.8,4.8,0,0,1-.87,2.79,5.88,5.88,0,0,1-2.57,2A10.37,10.37,0,0,1,154.45,102.18Z" style="fill:#02234c"/><path d="M169.36,102.18a16.8,16.8,0,0,1-4-.47,11.55,11.55,0,0,1-3.2-1.24l1.8-4.08a11.72,11.72,0,0,0,2.65,1.11,10.58,10.58,0,0,0,2.83.41,5.31,5.31,0,0,0,1.27-.11,1.49,1.49,0,0,0,.68-.3.67.67,0,0,0,.21-.49.78.78,0,0,0-.49-.71,5.35,5.35,0,0,0-1.32-.44L168,95.48a18.43,18.43,0,0,1-2-.53,7.92,7.92,0,0,1-1.8-.88,4.15,4.15,0,0,1-1.32-1.44,4.5,4.5,0,0,1-.5-2.22,4.86,4.86,0,0,1,.87-2.81,5.9,5.9,0,0,1,2.58-2,10.77,10.77,0,0,1,4.29-.76,15.42,15.42,0,0,1,3.32.36,10.29,10.29,0,0,1,2.94,1.09l-1.68,4.06a13.33,13.33,0,0,0-2.39-.93,8.88,8.88,0,0,0-2.24-.31,4.35,4.35,0,0,0-1.28.15,1.37,1.37,0,0,0-.68.38.79.79,0,0,0-.2.52.75.75,0,0,0,.5.67,5.13,5.13,0,0,0,1.32.42l1.8.36a13.83,13.83,0,0,1,2,.52,7.45,7.45,0,0,1,1.79.88,4.19,4.19,0,0,1,1.32,1.42,4.39,4.39,0,0,1,.49,2.18,4.79,4.79,0,0,1-.86,2.79,6,6,0,0,1-2.58,2A10.36,10.36,0,0,1,169.36,102.18Z" style="fill:#02234c"/><path d="M163.25,68.21h9.15l-4.62-16.47a5.3,5.3,0,0,0-4.46-3.84L131.2,43.83,118.12,23.56a6.54,6.54,0,0,0-5.51-3H78.34V76.12H99.1a1.53,1.53,0,0,1-.23-.92,23.93,23.93,0,0,1,47.75,0,1.53,1.53,0,0,1-.24.92h15.06a1.73,1.73,0,0,1-.12-.64V70.14A1.93,1.93,0,0,1,163.25,68.21ZM122.28,44H97.59a2.07,2.07,0,0,1-2.07-2.06V25.71a2.07,2.07,0,0,1,2.07-2.06h14.33a2,2,0,0,1,1.73,1L124,40.77A2.07,2.07,0,0,1,122.28,44Z" style="fill:url(#a)"/><path d="M176,69.5h-12a1.41,1.41,0,0,0-1.41,1.4v3.81a1.41,1.41,0,0,0,1.41,1.41h12a1.41,1.41,0,0,0,1.4-1.41V70.9A1.4,1.4,0,0,0,176,69.5Z" style="fill:url(#b)"/><path d="M78.34,7.84V18H112.9S108.32,7.84,78.34,7.84Z" style="fill:url(#c)"/><rect x="70.4" width="5.29" height="76.12" style="fill:url(#d)"/><path d="M122.74,55.4a20.74,20.74,0,0,0-20.67,19.32,1.29,1.29,0,0,0,1.28,1.4h4.56A1.26,1.26,0,0,0,109.18,75a13.61,13.61,0,0,1,27.12,0,1.27,1.27,0,0,0,1.26,1.15h4.58a1.29,1.29,0,0,0,1.28-1.4A20.75,20.75,0,0,0,122.74,55.4Z" style="fill:url(#e)"/><polygon points="0 7.84 55.94 21.49 8.27 21.49 55.94 35.15 17.33 35.15 55.94 48.8 27.16 48.8 55.94 62.46 36.64 62.46 67.54 76.12 67.54 7.84 0 7.84" style="fill:url(#f)"/></svg>