<!DOCTYPE svg PUBLIC "-//W3C//DTD SVG 1.1//EN" "http://www.w3.org/Graphics/SVG/1.1/DTD/svg11.dtd">
<!-- Uploaded to: SVG Repo, www.svgrepo.com, Transformed by: SVG Repo Mixer Tools -->
<svg fill="#69c4a6" version="1.1" id="Capa_1" xmlns="http://www.w3.org/2000/svg" xmlns:xlink="http://www.w3.org/1999/xlink" width="800px" height="800px" viewBox="0 0 52.334 52.333" xml:space="preserve">
<g id="SVGRepo_bgCarrier" stroke-width="0"/>
<g id="SVGRepo_tracerCarrier" stroke-linecap="round" stroke-linejoin="round"/>
<g id="SVGRepo_iconCarrier"> <g> <g> <path d="M52.334,44.853V5.195c0-0.553-0.448-1-1-1H1c-0.552,0-1,0.447-1,1v22.246v3.943v13.469c0,0.553,0.448,1,1,1h12.844h3.996 h29.053l1.992,1.993c0.195,0.194,0.451,0.293,0.707,0.293s0.512-0.099,0.707-0.293c0.391-0.392,0.391-1.023,0-1.414l-0.579-0.579 h1.614C51.886,45.853,52.334,45.406,52.334,44.853z M50.334,43.853H47.72l-1.026-1.027h1.72c0.552,0,1-0.447,1-1V12.223 c0-0.553-0.448-1-1-1H3.923c-0.552,0-1,0.447-1,1v12.041v6.634v10.928c0,0.553,0.448,1,1,1h10.559h6.65h22.733l1.027,1.027H17.84 h-3.996H2V31.384v-3.943V6.195h48.334V43.853z M29.865,36.019c-4.746,0-8.607-3.861-8.607-8.607c0-3.263,1.825-6.106,4.507-7.565 h0.403c0.393,0,0.724-0.231,0.889-0.561c0.881-0.306,1.824-0.48,2.809-0.48c4.746,0,8.607,3.861,8.607,8.606 C38.473,32.158,34.611,36.019,29.865,36.019z M40.473,27.412c0-5.849-4.758-10.606-10.607-10.606 c-1.631,0-3.169,0.381-4.551,1.041H9.201c-0.552,0-1,0.447-1,1c0,0.553,0.448,1,1,1h13.243c-0.486,0.477-0.927,1-1.314,1.563 H9.201c-0.552,0-1,0.447-1,1c0,0.553,0.448,1,1,1h10.847c-0.208,0.507-0.372,1.034-0.499,1.576H9.201c-0.552,0-1,0.447-1,1 c0,0.554,0.448,1,1,1h10.078c-0.005,0.144-0.021,0.283-0.021,0.429c0,0.379,0.022,0.754,0.061,1.125H9.201c-0.552,0-1,0.446-1,1 c0,0.553,0.448,1,1,1h10.528c0.173,0.561,0.4,1.097,0.66,1.613H9.201c-0.552,0-1,0.447-1,1s0.448,1,1,1h12.475 c0.001,0,0.002-0.001,0.003-0.001c0.591,0.716,1.278,1.347,2.035,1.888H9.201c-0.552,0-1,0.446-1,1c0,0.553,0.448,1,1,1H29.08 c0.081,0,0.152-0.027,0.227-0.047c0.187,0.01,0.37,0.028,0.559,0.028c2.564,0,4.919-0.916,6.756-2.437l5.242,5.242H21.131h-6.65 H4.922v-9.928v-6.634V13.223h42.49v27.603h-2.721l-6.656-6.656C39.557,32.333,40.473,29.977,40.473,27.412z"/> <path d="M47.295,9.742h1.166c0.553,0,1-0.447,1-1c0-0.553-0.447-1-1-1h-1.166c-0.552,0-1,0.447-1,1 C46.295,9.295,46.743,9.742,47.295,9.742z"/> <path d="M37.295,9.742h1.166c0.553,0,1-0.447,1-1c0-0.553-0.447-1-1-1h-1.166c-0.552,0-1,0.447-1,1 C36.295,9.295,36.743,9.742,37.295,9.742z"/> <path d="M42.295,9.742h1.166c0.553,0,1-0.447,1-1c0-0.553-0.447-1-1-1h-1.166c-0.552,0-1,0.447-1,1 C41.295,9.295,41.743,9.742,42.295,9.742z"/> <path d="M37.295,27.412c0-4.097-3.333-7.43-7.43-7.43c-0.553,0-1,0.447-1,1c0,0.553,0.447,1,1,1c2.994,0,5.43,2.436,5.43,5.43 c0,0.553,0.448,1,1,1C36.848,28.412,37.295,27.964,37.295,27.412z"/> </g> </g> </g>
</svg>